<svg width="24" height="24" viewBox="13 11 24 24" fill="none" xmlns="http://www.w3.org/2000/svg">
<g filter="url(#filter0_d_1_1324)">
<path fill-rule="evenodd" clip-rule="evenodd" d="M18.7363 14.978H18.7363C18.1901 14.978 17.7473 14.5352 17.7473 13.989C17.7473 13.9314 17.7522 13.8749 17.7617 13.82C17.8418 13.3543 18.2477 13 18.7363 13H18.7363H18.7363C19.2825 13 19.7253 13.4428 19.7253 13.989C19.7253 14.0722 19.715 14.153 19.6957 14.2302C19.588 14.6598 19.1993 14.978 18.7363 14.978H18.7363ZM26.8461 14.3846C26.8461 13.8384 27.289 13.3956 27.8352 13.3956C28.3814 13.3956 28.8242 13.8384 28.8242 14.3846C28.8242 14.9308 28.3814 15.3736 27.8352 15.3736C27.289 15.3736 26.8461 14.9308 26.8461 14.3846ZM30.5384 14.9121C30.5384 14.8973 30.5388 14.8826 30.5395 14.868C30.5625 14.4151 30.937 14.0549 31.3956 14.0549C31.869 14.0549 32.2528 14.4387 32.2528 14.9121C32.2528 15.1487 32.1568 15.363 32.0017 15.5181C31.8466 15.6733 31.6323 15.7692 31.3956 15.7692C30.9222 15.7692 30.5384 15.3854 30.5384 14.9121ZM24.5385 16.0329H24.5384C23.975 16.0329 23.5087 15.6172 23.4294 15.0758C23.4216 15.0224 23.4176 14.9677 23.4176 14.9121C23.4176 14.293 23.9194 13.7912 24.5384 13.7912H24.5385H24.5385C25.0487 13.7912 25.4793 14.1321 25.6149 14.5986C25.6438 14.6981 25.6594 14.8033 25.6594 14.9121C25.6594 15.5311 25.1575 16.0329 24.5385 16.0329H24.5385ZM34.2967 17.6153H34.2967C33.9431 17.6153 33.6486 17.3623 33.5844 17.0274C33.5759 16.9829 33.5715 16.937 33.5715 16.8901C33.5715 16.4895 33.8962 16.1648 34.2967 16.1648H34.2967H34.2967C34.6472 16.1648 34.9396 16.4134 35.0072 16.7439C35.0169 16.7911 35.022 16.84 35.022 16.8901C35.022 17.2906 34.6973 17.6153 34.2967 17.6153L34.2967 17.6153ZM16.5616 17.7454C15.9727 17.7118 15.5055 17.2236 15.5055 16.6264C15.5055 16.0073 16.0074 15.5055 16.6264 15.5055C17.2454 15.5055 17.7473 16.0073 17.7473 16.6264C17.7473 17.2454 17.2454 17.7472 16.6264 17.7472C16.6047 17.7472 16.583 17.7466 16.5616 17.7454V17.7454ZM21.2418 17.8791H21.2418C20.5499 17.8791 19.989 17.3182 19.989 16.6263C19.989 16.548 19.9962 16.4713 20.01 16.3969C20.1178 15.8146 20.6283 15.3736 21.2418 15.3736H21.2418H21.2418C21.9337 15.3736 22.4946 15.9345 22.4946 16.6264C22.4946 17.3182 21.9337 17.8791 21.2418 17.8791L21.2418 17.8791ZM35.8132 19.6594C35.8132 19.3316 36.0789 19.0659 36.4066 19.0659C36.7343 19.0659 37 19.3316 37 19.6594C37 19.987 36.7343 20.2527 36.4066 20.2527C36.0789 20.2527 35.8132 19.987 35.8132 19.6594ZM23.5649 20.911C22.9693 20.8845 22.4946 20.3933 22.4946 19.7912C22.4946 19.1721 22.9964 18.6703 23.6154 18.6703C24.2344 18.6703 24.7363 19.1721 24.7363 19.7912C24.7363 20.3933 24.2615 20.8845 23.6659 20.911C23.6492 20.9117 23.6323 20.9121 23.6154 20.9121C23.5985 20.9121 23.5816 20.9117 23.5649 20.911ZM15.1758 21.0439H15.1758C14.4839 21.0439 13.9231 20.483 13.9231 19.7911C13.9231 19.0993 14.4839 18.5384 15.1758 18.5384H15.1758H15.1759C15.8677 18.5384 16.4286 19.0993 16.4286 19.7911C16.4286 20.483 15.8677 21.0439 15.1759 21.0439H15.1758ZM18.011 19.6594C18.011 18.8947 18.6309 18.2747 19.3956 18.2747C20.1603 18.2747 20.7802 18.8947 20.7802 19.6594C20.7802 20.4241 20.1603 21.044 19.3956 21.044C18.6309 21.044 18.011 20.4241 18.011 19.6594ZM24.8682 23.2197C24.8682 22.6007 25.37 22.0989 25.989 22.0989C26.6081 22.0989 27.1099 22.6007 27.1099 23.2197C27.1099 23.8388 26.6081 24.3407 25.989 24.3407C25.37 24.3407 24.8682 23.8388 24.8682 23.2197ZM21.1768 23.2681C21.1761 23.2521 21.1758 23.2359 21.1758 23.2197C21.1758 22.5279 21.7367 21.967 22.4286 21.967C23.1204 21.967 23.6813 22.5278 23.6813 23.2197C23.6813 23.2359 23.681 23.2521 23.6804 23.2681C23.6549 23.9376 23.1042 24.4725 22.4286 24.4725C21.7529 24.4725 21.2022 23.9376 21.1768 23.2681ZM13 23.3516C13 22.5869 13.6199 21.967 14.3846 21.967C15.1493 21.967 15.7692 22.5869 15.7692 23.3516C15.7692 24.1163 15.1493 24.7362 14.3846 24.7362C13.6199 24.7362 13 24.1163 13 23.3516ZM16.9561 23.3516C16.9561 22.5141 17.635 21.8352 18.4726 21.8352C19.3101 21.8352 19.989 22.5141 19.989 23.3516C19.989 24.1891 19.3101 24.8681 18.4726 24.8681C17.635 24.8681 16.9561 24.1891 16.9561 23.3516ZM23.3019 27.7248C22.8355 27.5892 22.4946 27.1586 22.4946 26.6483V26.6483V26.6483C22.4946 26.0848 22.9103 25.6185 23.4517 25.5393C23.5051 25.5315 23.5598 25.5274 23.6154 25.5274C23.671 25.5274 23.7257 25.5315 23.7792 25.5393C24.3206 25.6185 24.7363 26.0848 24.7363 26.6483V26.6483V26.6483C24.7363 27.1586 24.3954 27.5892 23.9289 27.7248C23.8294 27.7537 23.7242 27.7692 23.6154 27.7692C23.5066 27.7692 23.4014 27.7537 23.3019 27.7248ZM15.1758 28.1648H15.1758C14.4839 28.1648 13.9231 27.6039 13.9231 26.912C13.9231 26.2202 14.4839 25.6593 15.1758 25.6593H15.1758H15.1759C15.8677 25.6593 16.4286 26.2202 16.4286 26.912C16.4286 27.6039 15.8677 28.1648 15.1759 28.1648H15.1758ZM35.8132 27.7032C35.8132 27.3755 36.0789 27.1099 36.4066 27.1099C36.7343 27.1099 37 27.3755 37 27.7032C37 28.031 36.7343 28.2967 36.4066 28.2967C36.0789 28.2967 35.8132 28.031 35.8132 27.7032ZM18.011 27.0439C18.011 26.2792 18.6309 25.6593 19.3956 25.6593C20.1603 25.6593 20.7802 26.2792 20.7802 27.0439C20.7802 27.8086 20.1603 28.4285 19.3956 28.4285C18.6309 28.4285 18.011 27.8086 18.011 27.0439ZM34.2967 31.1978H34.2967C33.9431 31.1978 33.6486 30.9447 33.5844 30.6098C33.5759 30.5653 33.5715 30.5194 33.5715 30.4725C33.5715 30.0719 33.8962 29.7473 34.2967 29.7473H34.2967H34.2967C34.6472 29.7473 34.9396 29.9959 35.0072 30.3263C35.0169 30.3735 35.022 30.4224 35.022 30.4725C35.022 30.8731 34.6973 31.1978 34.2967 31.1978L34.2967 31.1978ZM16.5616 31.3278C15.9727 31.2942 15.5055 30.8061 15.5055 30.2088C15.5055 29.5897 16.0074 29.0879 16.6264 29.0879C17.2454 29.0879 17.7473 29.5897 17.7473 30.2088C17.7473 30.8278 17.2454 31.3296 16.6264 31.3296C16.6047 31.3296 16.583 31.329 16.5616 31.3278V31.3278ZM21.2418 31.7252H21.2418C20.5499 31.7252 19.989 31.1643 19.989 30.4725C19.989 30.3941 19.9962 30.3174 20.01 30.243C20.1178 29.6607 20.6283 29.2197 21.2418 29.2197H21.2418H21.2418C21.9337 29.2197 22.4946 29.7806 22.4946 30.4725C22.4946 31.1643 21.9337 31.7252 21.2418 31.7252H21.2418ZM30.5384 32.3186C30.5384 32.3038 30.5388 32.2891 30.5395 32.2745C30.5625 31.8216 30.937 31.4615 31.3956 31.4615C31.869 31.4615 32.2528 31.8453 32.2528 32.3186C32.2528 32.781 31.8867 33.1578 31.4287 33.1752C31.4177 33.1756 31.4067 33.1758 31.3956 33.1758C30.9222 33.1758 30.5384 32.7921 30.5384 32.3186V32.3186ZM24.5385 33.5714H24.5384C23.975 33.5714 23.5087 33.1557 23.4294 32.6142C23.4216 32.5608 23.4176 32.5061 23.4176 32.4505C23.4176 31.8315 23.9194 31.3296 24.5384 31.3296H24.5385H24.5385C25.0487 31.3296 25.4793 31.6706 25.6149 32.137C25.6438 32.2365 25.6594 32.3417 25.6594 32.4505C25.6594 33.0695 25.1575 33.5714 24.5385 33.5714L24.5385 33.5714ZM26.8461 32.9779C26.8461 32.4318 27.289 31.989 27.8352 31.989C28.3814 31.989 28.8242 32.4318 28.8242 32.9779C28.8242 33.5242 28.3814 33.967 27.8352 33.967C27.289 33.967 26.8461 33.5242 26.8461 32.9779ZM18.7363 34.2307H18.7363C18.1901 34.2307 17.7473 33.7879 17.7473 33.2417C17.7473 33.1841 17.7522 33.1277 17.7617 33.0727C17.8418 32.607 18.2477 32.2527 18.7363 32.2527H18.7363H18.7363C19.2825 32.2527 19.7253 32.6955 19.7253 33.2417C19.7253 33.3249 19.715 33.4057 19.6957 33.4829C19.588 33.9125 19.1993 34.2307 18.7363 34.2307H18.7363Z" fill="url(#paint0_linear_1_1324)"/>
</g>
<defs>
<filter id="filter0_d_1_1324" x="0" y="0" width="54" height="51.2307" filterUnits="userSpaceOnUse" color-interpolation-filters="sRGB">
<feFlood flood-opacity="0" result="BackgroundImageFix"/>
<feColorMatrix in="SourceAlpha" type="matrix" values="0 0 0 0 0 0 0 0 0 0 0 0 0 0 0 0 0 0 127 0" result="hardAlpha"/>
<feOffset dx="2" dy="2"/>
<feGaussianBlur stdDeviation="7.5"/>
<feColorMatrix type="matrix" values="0 0 0 0 0.0705882 0 0 0 0 0.00784314 0 0 0 0 0.133333 0 0 0 0.9 0"/>
<feBlend mode="normal" in2="BackgroundImageFix" result="effect1_dropShadow_1_1324"/>
<feBlend mode="normal" in="SourceGraphic" in2="effect1_dropShadow_1_1324" result="shape"/>
</filter>
<linearGradient id="paint0_linear_1_1324" x1="24.0334" y1="44.8453" x2="45.3232" y2="22.7178" gradientUnits="userSpaceOnUse">
<stop stop-color="#964BFF"/>
<stop offset="0.37" stop-color="#A695FF"/>
<stop offset="0.65" stop-color="#3CE9FF"/>
<stop offset="0.86" stop-color="#CAFF2C"/>
<stop offset="1" stop-color="#FFFF21"/>
</linearGradient>
</defs>
</svg>
